<svg xmlns="http://www.w3.org/2000/svg" width="153" height="20" viewBox="0 0 153 20" fill="none">
  <path d="M0 0.316956H3.5342V16.1893H0V0.316956ZM1.9685 6.58168H14.2858V9.73518H1.9685V6.58168ZM12.6986 0.316956H16.2328V16.1893H12.6986V0.316956Z" fill="#4AFC38"/>
  <path d="M23.6396 15.4279L18.3276 4.14789H22.2216L27.0892 15.4279H23.6396ZM22.8776 19.9994C22.0872 19.9994 21.375 19.9003 20.7399 19.7033C20.1048 19.5057 19.505 19.2165 18.9412 18.8359V16.296C19.5341 16.6767 20.0978 16.952 20.6345 17.1212C21.1705 17.2903 21.7633 17.3749 22.4123 17.3749C22.9906 17.3749 23.5058 17.2443 23.9572 16.9835C24.4086 16.7221 24.7823 16.26 25.079 15.5971L30.095 4.14789H33.8407L27.8304 16.7405C27.4636 17.5303 27.0191 18.1654 26.497 18.6452C25.9749 19.1244 25.4073 19.4703 24.7931 19.6825C24.1794 19.894 23.5405 20 22.8776 20V19.9994Z" fill="#4AFC38"/>
  <path d="M35.4695 4.14786H39.0037V7.97816L38.8554 8.44345V11.3432L39.0037 12.2106V19.6812H35.4695V4.14723V4.14786ZM37.7764 10.1796C38.0163 8.89612 38.4355 7.7774 39.0359 6.82534C39.6357 5.87329 40.3902 5.1359 41.3005 4.61379C42.2103 4.09167 43.2229 3.83093 44.3372 3.83093C45.5223 3.83093 46.5627 4.09546 47.4586 4.62452C48.3544 5.15358 49.0565 5.89413 49.5641 6.84681C50.0723 7.79886 50.3261 8.91001 50.3261 10.1802C50.3261 11.4505 50.0723 12.5402 49.5641 13.4922C49.0565 14.4443 48.3544 15.1855 47.4586 15.7145C46.5627 16.2436 45.5223 16.5081 44.3372 16.5081C43.1522 16.5081 42.1964 16.2467 41.3005 15.7252C40.4047 15.2031 39.6534 14.4657 39.0467 13.5137C38.44 12.5616 38.0163 11.4505 37.7771 10.1802L37.7764 10.1796ZM46.7496 10.1796C46.7496 9.47442 46.605 8.85003 46.3158 8.30645C46.0267 7.76351 45.6283 7.33988 45.1201 7.03684C44.6125 6.7338 44.0266 6.58165 43.3637 6.58165C42.7008 6.58165 42.0727 6.73317 41.4798 7.03684C40.887 7.34051 40.3687 7.76351 39.9242 8.30645C39.916 8.31656 39.9078 8.32665 39.8996 8.33676C39.0334 9.41002 39.0347 10.9606 39.911 12.0256C39.9154 12.0313 39.9198 12.0364 39.9242 12.0421C40.3687 12.5787 40.887 12.9979 41.4798 13.3016C42.0727 13.6052 42.7002 13.7568 43.3637 13.7568C44.0273 13.7568 44.6125 13.6052 45.1201 13.3016C45.6283 12.9985 46.0267 12.5787 46.3158 12.0421C46.605 11.506 46.7496 10.8854 46.7496 10.1796Z" fill="#4AFC38"/>
  <path d="M59.4053 16.5075C57.9803 16.5075 56.7069 16.2429 55.5851 15.7139C54.4632 15.1848 53.5812 14.4405 52.9398 13.4809C52.2977 12.5219 51.977 11.4069 51.977 10.1373C51.977 8.86771 52.2838 7.78118 52.8975 6.83608C53.5111 5.89097 54.354 5.15358 55.4266 4.62452C56.4986 4.09546 57.719 3.83093 59.0877 3.83093C60.4564 3.83093 61.6837 4.13776 62.6857 4.75142C63.6876 5.36507 64.4597 6.22937 65.0033 7.34367C65.5462 8.4586 65.8183 9.77051 65.8183 11.28H54.8136V8.93084H63.9136L62.5379 9.77746C62.4811 9.07226 62.3088 8.47249 62.0196 7.97879C61.7305 7.48509 61.339 7.10439 60.8453 6.83608C60.3516 6.56839 59.7727 6.43392 59.1098 6.43392C58.3901 6.43392 57.7657 6.57849 57.2366 6.86765C56.7076 7.1568 56.2985 7.55895 56.0093 8.07412C55.7202 8.58929 55.5756 9.19221 55.5756 9.88352C55.5756 10.7163 55.7587 11.4284 56.1261 12.0212C56.4929 12.614 57.0289 13.0654 57.7347 13.3754C58.4399 13.686 59.2935 13.8407 60.2954 13.8407C61.1982 13.8407 62.108 13.7107 63.0253 13.4493C63.942 13.1885 64.7678 12.818 65.5014 12.3381V14.7082C64.711 15.2726 63.7905 15.7133 62.7393 16.0308C61.6882 16.3484 60.577 16.5068 59.4059 16.5068L59.4053 16.5075Z" fill="#4AFC38"/>
  <path d="M68.273 4.14785H71.8072V16.1899H68.273V4.14785ZM77.6691 4.02096V7.0684C77.3023 6.9838 76.9355 6.92004 76.5687 6.87774C76.2019 6.83544 75.8559 6.81397 75.5314 6.81397C74.8256 6.81397 74.1911 6.96234 73.6267 7.25843C73.0623 7.55453 72.6178 8.01351 72.2933 8.63411C71.9688 9.25534 71.8066 10.0382 71.8066 10.9833L71.066 10.0944C71.1506 9.23387 71.3059 8.4264 71.5319 7.67132C71.7573 6.91688 72.0717 6.25335 72.4739 5.68199C72.876 5.11064 73.3735 4.65923 73.9657 4.32778C74.5586 3.99633 75.2638 3.83029 76.082 3.83029C76.3497 3.83029 76.6217 3.84797 76.897 3.88333C77.1723 3.91868 77.4292 3.96477 77.6698 4.02096H77.6691Z" fill="#4AFC38"/>
  <path d="M78.7702 11.0048H82.4104C82.495 11.5414 82.7312 12.0099 83.1194 12.412C83.5071 12.8142 84.0292 13.1248 84.6858 13.3433C85.3417 13.5623 86.0999 13.6715 86.9611 13.6715C88.2168 13.6715 89.208 13.4916 89.9347 13.1318C90.6613 12.7719 91.0244 12.2675 91.0244 11.6185C91.0244 11.1109 90.816 10.7188 90.4 10.4442C89.9839 10.1689 89.2112 9.96815 88.0823 9.84125L84.8865 9.48139C82.8265 9.25601 81.334 8.7724 80.4104 8.03185C79.4861 7.2913 79.024 6.2578 79.024 4.93137C79.024 3.88715 79.3308 2.99823 79.9445 2.26462C80.5581 1.53101 81.4224 0.97039 82.5367 0.58212C83.651 0.194481 84.9635 3.05176e-05 86.4731 3.05176e-05C87.9826 3.05176e-05 89.2453 0.215315 90.3886 0.645253C91.5313 1.07582 92.4417 1.67559 93.1185 2.44392C93.7959 3.21288 94.1627 4.11254 94.2189 5.14224H90.5786C90.5079 4.67695 90.2996 4.271 89.9542 3.92503C89.6083 3.57969 89.1322 3.31137 88.5255 3.12071C87.9188 2.93005 87.2061 2.83472 86.3878 2.83472C85.2451 2.83472 84.3348 3.00391 83.658 3.34294C82.9812 3.68197 82.6421 4.16115 82.6421 4.78238C82.6421 5.26219 82.8435 5.63279 83.2451 5.89353C83.6472 6.1549 84.3562 6.34872 85.372 6.47562L88.6947 6.87777C90.162 7.03308 91.3293 7.28372 92.1974 7.62906C93.0648 7.97503 93.6861 8.43717 94.0598 9.01547C94.4336 9.5944 94.6204 10.3274 94.6204 11.2163C94.6204 12.2744 94.2991 13.2025 93.6576 13.9992C93.0156 14.7966 92.1159 15.414 90.9593 15.8509C89.8021 16.2878 88.4479 16.5069 86.8961 16.5069C85.3443 16.5069 83.9256 16.2771 82.7267 15.8193C81.5272 15.361 80.5821 14.7189 79.8908 13.8931C79.1995 13.068 78.8251 12.1046 78.7689 11.0042L78.7702 11.0048Z" fill="#4AFC38"/>
  <path d="M112.653 14.2637H111.488L115.256 4.14789H118.79L114.134 16.1899H110.515L106.494 5.79882H107.764L103.679 16.1899H100.06L95.4039 4.14789H98.9804L102.768 14.2637H101.562L105.414 4.14789H108.863L112.652 14.2637H112.653Z" fill="#4AFC38"/>
  <path d="M132.017 10.1796C131.791 11.4492 131.379 12.5604 130.779 13.513C130.18 14.4651 129.425 15.2031 128.515 15.7246C127.605 16.2467 126.585 16.5075 125.457 16.5075C124.328 16.5075 123.248 16.2429 122.345 15.7139C121.443 15.1848 120.741 14.4443 120.239 13.4916C119.738 12.5395 119.488 11.4353 119.488 10.1796C119.488 8.92389 119.738 7.79885 120.239 6.84617C120.74 5.89412 121.442 5.15294 122.345 4.62388C123.248 4.09482 124.285 3.83029 125.457 3.83029C126.628 3.83029 127.605 4.09167 128.515 4.61315C129.425 5.13526 130.183 5.87266 130.79 6.82471C131.397 7.77676 131.806 8.89548 132.017 10.179V10.1796ZM123.065 10.1796C123.065 10.8854 123.21 11.506 123.499 12.042C123.788 12.5787 124.186 12.9979 124.695 13.3016C125.202 13.6052 125.788 13.7567 126.451 13.7567C127.114 13.7567 127.738 13.6052 128.324 13.3016C128.909 12.9985 129.428 12.5787 129.88 12.042C129.884 12.037 129.889 12.0313 129.893 12.0256C130.779 10.965 130.781 9.40623 129.904 8.33675C129.896 8.32665 129.888 8.31655 129.879 8.30645C129.427 7.7635 128.909 7.33987 128.323 7.03683C127.738 6.73379 127.113 6.58164 126.45 6.58164C125.787 6.58164 125.202 6.73316 124.694 7.03683C124.186 7.3405 123.787 7.7635 123.498 8.30645C123.209 8.85002 123.064 9.47378 123.064 10.1796H123.065ZM134.618 16.1899H131.086L131.083 11.7668V8.56782L131.086 4.14785H134.618" fill="#4AFC38"/>
  <path d="M137.329 4.14786H140.864V7.97816L140.715 8.44345V11.3432L140.864 12.2106V19.6812H137.329V4.14723V4.14786ZM139.636 10.1796C139.876 8.89612 140.295 7.7774 140.895 6.82534C141.495 5.87329 142.249 5.1359 143.16 4.61379C144.07 4.09167 145.082 3.83093 146.197 3.83093C147.382 3.83093 148.422 4.09546 149.318 4.62452C150.214 5.15358 150.916 5.89413 151.423 6.84681C151.931 7.79886 152.185 8.91001 152.185 10.1802C152.185 11.4505 151.932 12.5402 151.423 13.4922C150.916 14.4443 150.213 15.1855 149.318 15.7145C148.422 16.2436 147.382 16.5081 146.197 16.5081C145.012 16.5081 144.056 16.2467 143.16 15.7252C142.264 15.2031 141.512 14.4657 140.906 13.5137C140.299 12.5616 139.876 11.4505 139.636 10.1802V10.1796ZM148.61 10.1796C148.61 9.47442 148.465 8.85003 148.176 8.30645C147.887 7.76351 147.488 7.33988 146.98 7.03684C146.472 6.7338 145.887 6.58165 145.224 6.58165C144.561 6.58165 143.933 6.73317 143.34 7.03684C142.748 7.34051 142.229 7.76351 141.785 8.30645C141.777 8.31656 141.768 8.32665 141.76 8.33676C140.894 9.41002 140.895 10.9606 141.772 12.0256C141.776 12.0313 141.78 12.0364 141.785 12.0421C142.229 12.5787 142.748 12.9979 143.34 13.3016C143.933 13.6052 144.561 13.7568 145.224 13.7568C145.887 13.7568 146.472 13.6052 146.98 13.3016C147.488 12.9985 147.887 12.5787 148.176 12.0421C148.465 11.506 148.61 10.8854 148.61 10.1796Z" fill="#4AFC38"/>
</svg>